<svg xmlns="http://www.w3.org/2000/svg" viewBox="0 0 500 500"><g id="freepik--Floor--inject-3"><path
 d="M409,255.09c-88.41-51-231.28-51-319.12,0S2.55,388.9,91,439.94s231.28,51.05,319.12,0S497.45,306.14,409,
 21-.07.31l-.09.42L156.22,85C156.27,84.71,156.33,84.47,156.39,84.23Z" style="opacity:0.2"></path><polygon points="151.91 88.75 145.78 85.19 145.79 91.17 151.32 94.38 151.93 94.73 151.91 88.75" style="opacity:0.2"></polygon><polygon points="167.95 60.97 161.82 57.41 160.69 63.02 166.83 66.59 167.95 60.97" style="opacity:0.2"></polygon><polygon points="155.52 76.57 149.38 73.01 151.65 76.15 157.78 79.72 155.52 76.57" style="opacity:0.2"></polygon><polygon points="163.06 70.57 156.92 67.01 156.92 67.01 153.05 66.65 159.19 70.22 163.06 70.57" style="opacity:0.2"></polygon><polygon points="159.19 70.22 153.05 66.65 149.38 73.01 155.52 76.57 159.19 70.22" style="fill:#e0e0e0"></polygon><polygon points="173.5 59.23 178.08 61.9 181.94 57.08 175.81 53.51 172.53 57.6 173.16 57.97 173.5 59.23" style="fill:#fff;opacity:0.2"></polygon><path d="M163.06,70.57c.51-.64,1.05-1.26,1.6-1.86l.17-.19h0c.2-.21.41-.42.62-.62l.25-.26h0c.37-.36.74-.72,1.13-1L160.69,63c-.38.34-.75.69-1.12,1,0,0-.07.06-.1.1l-.51.52-.26.27c-.29.31-.58.62-.86.94v0c-.31.35-.61.72-.91,1.09h0Z" style="fill:#fff;opacity:0.2"></path><polygon points="156.22 84.95 150.09 81.39 145.78 85.19 151.91 88.75 156.22 84.95" style="fill:#fff;opacity:0.2"></polygon><polygon points="173.16 57.97 172.53 57.6 167.02 54.4 161.82 57.41 167.95 60.97 173.16 57.97" style="fill:#fff;opacity:0.2"></polygon><polygon points="159.19 70.22 153.05 66.65 149.38 73.01 155.52 76.57 159.19 70.22" style="fill:#fff;opacity:0.2"></polygon><path d="M185,77l4.31-3.8,0-6L185,68.35a10.28,10.28,0,0,0-1.58-3.42l.38-1,1.86-4.78-3.7-2.1-3.86,4.82h-.15l-.42,0h-.66a11.24,11.24,0,0,0-2.54.4l-.82-3L173.16,58,168,61l-1.12,5.62c-.39.33-.76.69-1.13,1l-.25.26c-.21.2-.42.41-.62.62l-.17.19c-.55.6-1.09,1.22-1.6,1.86l-3.87-.35-3.67,6.35,2.26,3.15q-.57,1.44-1,2.91c0,.17-.09.35-.14.53-.1.35-.18.71-.26,1.06s-.12.49-.17.73l-4.31,3.8,0,6,1.38-.37,2.94-.8A10.09,10.09,0,0,0,157.83,97l-2.24,5.74,3.7,2.1,3.27-4.09.58-.72a10.08,10.08,0,0,0,3.78-.38l1.15,4.3,5.21-3,1.12-5.62a30.31,30.31,0,0,0,3.77-4l3.87.35,3.67-6.36-2.26-3.14A31.28,31.28,0,0,0,185,77Zm-7.32.92a4.43,4.43,0,0,1-.06.51,5.67,5.67,0,0,1-.1.57c0,.13,0,.26-.07.39l-.09.37c0,.17-.09.34-.14.51l-.09.29c-.06.19-.12.38-.19.57s0,.16-.08.24c-.1.26-.21.52-.32.78l0,.09a7.32,7.32,0,0,1-.33.69,1.51,1.51,0,0,1-.11.22c-.11.21-.22.43-.34.64a.54.54,0,0,0-.07.13l-.45.73-.14.2c-.11.18-.23.35-.35.51l-.2.27-.33.42-.27.33-.28.32c-.15.17-.31.34-.47.5l-.3.3-.24.23-.19.15a7.69,7.69,0,0,1-.7.58l-.21.16-.21.15c-.23.16-.45.3-.68.44a9,9,0,0,1-.82.41l-.35.14a5.08,5.08,0,0,1-.51.17,1.58,1.58,0,0,1-.31.09,1.5,1.5,0,0,1-.29.06l-.37.06-.22,0a2.16,2.16,0,0,1-.44,0h-.12a4.52,4.52,0,0,1-.53-.06l-.12,0a2.85,2.85,0,0,1-.39-.11l-.13,0a2.67,2.67,0,0,1-.45-.22h0a4.54,4.54,0,0,1-2-3.6c0-.31-.06-.64-.07-1a15.73,15.73,0,0,1,7.12-12.32,8.45,8.45,0,0,1,1-.47,4.43,4.43,0,0,1,4.35.14,1.59,1.59,0,0,1,.21.15,2.18,2.18,0,0,1,.22.21l.19.18c.07.08.13.17.2.26s.11.13.16.21.12.2.17.3l.13.24a2.24,2.24,0,0,1,.14.36,2,2,0,0,1,.1.26,3,3,0,0,1,.11.4c0,.1.05.18.07.28s.05.33.07.5a1.87,1.87,0,0,1,0,.25,7.09,7.09,0,0,1,0,.81A9.2,9.2,0,0,1,177.69,77.87Z" style="fill:#e0e0e0"></path></g><g id="freepik--light-bulb-2--inject-3"><g id="freepik--freepik--light-bulb--inject-77--inject-3"><g id="freepik--freepik--Idea--inject-77--inject-3"><g id="freepik--freepik--light--inject-77--inject-3"><path d="M301.32,90.12a3.53,3.53,0,1,1-3.59-3.48,3.52,3.52,0,0,1,3.59,3.48Z" style="fill:#37474f"></path><path d="M293.52,90.49c-2.36-1.31-2.4-3.51-.07-4.9a9.35,9.35,0,0,1,8.48-.12c2.35,1.31,2.39,3.5.07,4.88A9.35,9.35,0,0,1,293.52,90.49Z" style="fill:#455a64"></path><path d="M293.37,89.22c-2.44-1.36-2.47-3.62-.09-5A9.73,9.73,0,0,1,302,84c2.44,1.36,2.47,3.62.07,5A9.6,9.6,0,0,1,293.37,89.22Z" style="fill:#37474f"></path><path d="M293.22,87.92c-2.5-1.4-2.54-3.72-.06-5.14a10,10,0,0,1,9-.14c2.51,1.4,2.56,3.73.09,5.21A9.94,9.94,0,0,1,293.22,87.92Z" style="fill:#455a64"></path><path d="M293.05,86.55c-2.58-1.44-2.61-3.84-.08-5.36a10.31,10.31,0,0,1,9.29-.15c2.58,1.44,2.62,3.84.07,5.36A10.29,10.29,0,0,1,293.05,86.55Z" style="fill:#37474f"></path><path d="M292.91,85.14c-2.67-1.52-2.69-3.92-.09-5.47a10.43,10.43,0,0,1,9.48-.15c2.64,1.46,2.68,3.91.08,5.47A10.44,10.44,0,0,1,292.91,85.14Z" style="fill:#455a64"></path><path d="M297,43.84a16.81,16.81,0,0,0-16.58,17V61c.21,13.36,11.25,15.41,11.37,20.79a2.87,2.87,0,0,0,1.73,2.34,9.09,9.09,0,0,0,8.22-.12,2.88,2.88,0,0,0,1.63-2.39h0c-.09-5.38,10.91-7.77,10.69-21.15a16.8,16.8,0,0,0-17-16.58Z" style="fill:#E94B4B"></path><g style="opacity:0.6000000000000001"><path d="M297,43.84a16.81,16.81,0,0,0-16.58,17V61c.21,13.36,11.25,15.41,11.37,20.79a2.87,2.87,0,0,0,1.73,2.34,9.09,9.09,0,0,0,8.22-.12,2.88,2.88,0,0,0,1.63-2.39h0c-.09-5.38,10.91-7.77,10.69-21.15a16.8,16.8,0,0,0-17-16.58Z" style="fill:#fff"></path></g><path d="M294.56,83.38c-1.68-1-1.75-2.55-.11-3.54a6.83,6.83,0,0,1,6.18-.1c1.68,1,1.75,2.55.06,3.57A6.82,6.82,0,0,1,294.56,83.38Z" style="fill:#E94B4B"></path><path d="M299.85,81.1a.57.57,0,0,1-.57-.55,40.92,40.92,0,0,1,1-9.62,20.33,20.33,0,0,1,.8-2.69,7.46,7.46,0,0,1-1.48-.71,9.81,9.81,0,0,1-2.28-1.88,10.28,10.28,0,0,1-2.2,1.91,8.21,8.21,0,0,1-1.45.73,20.85,20.85,0,0,1,.88,2.67,39.9,39.9,0,0,1,1.33,9.6.57.57,0,0,1-.58.57.58.58,0,0,1-.56-.58,40.66,40.66,0,0,0-1.3-9.31,19.05,19.05,0,0,0-.89-2.64,3.61,3.61,0,0,1-3.2-.89,1.83,1.83,0,0,1-.29-2.35,1.54,1.54,0,0,1,1.56-.68,4.31,4.31,0,0,1,2.56,2.57,6.44,6.44,0,0,0,1.31-.66,8.76,8.76,0,0,0,2.12-1.86,4.16,4.16,0,0,1-.89-3.2,1.6,1.6,0,0,1,3.06-.05A4.12,4.12,0,0,1,298,64.7a8.49,8.49,0,0,0,2.15,1.81,7.36,7.36,0,0,0,1.34.61A4.41,4.41,0,0,1,304,64.47a1.51,1.51,0,0,1,1.56.67,1.83,1.83,0,0,1-.21,2.36,3.63,3.63,0,0,1-3.17,1,19.1,19.1,0,0,0-.81,2.67,40.27,40.27,0,0,0-1,9.35.57.57,0,0,1-.55.59Zm-9.49-15.28a.38.38,0,0,0-.31.22c-.28.38.05.79.16.9a2.29,2.29,0,0,0,1.84.57,3.26,3.26,0,0,0-1.6-1.69Zm12.38,1.57a2.36,2.36,0,0,0,1.82-.64c.1-.12.42-.53.14-.91-.16-.22-.3-.22-.41-.2C303.91,65.71,303.32,66.26,302.74,67.39Zm-5.43-5.82a.38.38,0,0,0-.44.31h0a2.76,2.76,0,0,0,.48,1.86,2.82,2.82,0,0,0,.41-1.88.39.39,0,0,0-.45-.31h0Z" style="fill:#fff"></path></g><path d="M297,37.46a.71.71,0,0,1-.29,0,1.1,1.1,0,0,1-1.12-1.08l-.13-5.73a1.1,1.1,0,0,1,1.06-1.12h0a1.11,1.11,0,0,1,1.13,1.08l.12,5.73A1.1,1.1,0,0,1,297,37.46Z" style="fill:#e0e0e0"></path><path d="M284.86,41a1.11,1.11,0,0,1-1.25-.48l-3-4.9a1.11,1.11,0,0,1,1.89-1.15l3,4.89a1.11,1.11,0,0,1-.37,1.52A1.23,1.23,0,0,1,284.86,41Z" style="fill:#e0e0e0"></path><path d="M276.11,50.17a1,1,0,0,1-.84-.09l-5-2.76a1.1,1.1,0,0,1-.45-1.48,1.12,1.12,0,0,1,1.51-.44l5,2.74a1.11,1.11,0,0,1,.43,1.5A1.06,1.06,0,0,1,276.11,50.17Z" style="fill:#e0e0e0"></path><path d="M273.1,62.47a.81.81,0,0,1-.27.11l-5.73.12a1.08,1.08,0,0,1-1.12-1v0A1.1,1.1,0,0,1,267,60.5h0l5.73-.18a1.09,1.09,0,0,1,1.09,1.11,1.11,1.11,0,0,1-.76,1Z" style="fill:#e0e0e0"></path><path d="M327.76,61.26a.81.81,0,0,1-.27.11l-5.75.06a1.1,1.1,0,1,1,0-2.19l5.73-.13a1.1,1.1,0,0,1,.33,2.15Z" style="fill:#e0e0e0"></path><path d="M318.48,49.23a1.1,1.1,0,0,1-1.36-.76,1.12,1.12,0,0,1,.48-1.24l4.91-3a1.07,1.07,0,0,1,1.48.35v0a1.08,1.08,0,0,1-.35,1.5h0l-4.9,3A1.53,1.53,0,0,1,318.48,49.23Z" style="fill:#e0e0e0"></path><path d="M309.33,40.47a1.11,1.11,0,0,1-1.37-.74,1.12,1.12,0,0,1,.09-.84l2.78-5A1.11,1.11,0,0,1,312.76,35L310,40A1,1,0,0,1,309.33,40.47Z" style="fill:#e0e0e0"></path></g></g></g><g id="freepik--light-bulb-1--inject-3"><path d="M79.51,248.75h-.07a1.08,1.08,0,0,1-1-1l-3.56-46.2,2.15-.17,3,38.89,15.4-70.67a1.09,1.09,0,0,1,.88-.83,1.06,1.06,0,0,1,1.1.5l28.19,46.64,18.76-85.75a1.09,1.09,0,0,1,.94-.84,1.06,1.06,0,0,1,1.09.62l27.48,59.37,17.79-53,2,.69L175,192.57a1.06,1.06,0,0,1-1,.73,1.08,1.08,0,0,1-1-.62l-27.27-58.92L127.12,219a1.08,1.08,0,0,1-2,.32L97,172.71l-16.38,75.2A1.08,1.08,0,0,1,79.51,248.75Z" style="fill:#E94B4B"></path><g style="opacity:0.2"><path d="M79.51,248.75h-.07a1.08,1.08,0,0,1-1-1l-3.56-46.2,2.15-.17,3,38.89,15.4-70.67a1.09,1.09,0,0,1,.88-.83,1.06,1.06,0,0,1,1.1.5l28.19,46.64,18.76-85.75a1.09,1.09,0,0,1,.94-.84,1.06,1.06,0,0,1,1.09.62l27.48,59.37,17.79-53,2,.69L175,192.57a1.06,1.06,0,0,1-1,.73,1.08,1.08,0,0,1-1-.62l-27.27-58.92L127.12,219a1.08,1.08,0,0,1-2,.32L97,172.71l-16.38,75.2A1.08,1.08,0,0,1,79.51,248.75Z"></path></g><circle cx="145.41" cy="131.87" r="5.05" style="fill:#E94B4B"></circle><circle cx="145.41" cy="131.87" r="9.36" transform="translate(11.31 275.22) rotate(-89.12)" style="fill:#E94B4B;opacity:0.30000000000000004"></circle><path d="M248.12,228.52H248a.53.53,0,0,1-.42-.47L241,166,219.1,216.91a.53.53,0,0,1-.58.32.54.54,0,0,1-.45-.49l-5.81-66.42,1.07-.09L219,214.52l21.88-50.8a.52.52,0,0,1,.57-.32.54.54,0,0,1,.46.47l6.61,62.38,22-39.13.94.53-22.83,40.6A.53.53,0,0,1,248.12,228.52Z" style="fill:#E94B4B"></path><path d="M215.12,150.28a2.33,2.33,0,1,1-2.33-2.33A2.32,2.32,0,0,1,215.12,150.28Z" style="fill:#E94B4B"></path><path d="M215.12,150.28a2.33,2.33,0,1,1-2.33-2.33A2.32,2.32,0,0,1,215.12,150.28Z" style="opacity:0.2"></path><path d="M243.32,164.75a2.32,2.32,0,1,1-2.32-2.33A2.32,2.32,0,0,1,243.32,164.75Z" style="fill:#E94B4B"></path><path d="M243.32,164.75a2.32,2.32,0,1,1-2.32-2.33A2.32,2.32,0,0,1,243.32,164.75Z" style="opacity:0.2"></path><path d="M273.74,187.65a2.32,2.32,0,1,1-2.32-2.33A2.32,2.32,0,0,1,273.74,187.65Z" style="fill:#E94B4B"></path><path d="M273.74,187.65a2.32,2.32,0,1,1-2.32-2.33A2.32,2.32,0,0,1,273.74,187.65Z" style="opacity:0.2"></path><path d="M263.68,251.27h-.11a1.08,1.08,0,0,1-1-1l-6.92-72.72L240.47,221.2a1.08,1.08,0,0,1-2.09-.21l-9.14-67.09-22.72,56.91a1.08,1.08,0,0,1-2.07-.29l-5.71-56,2.15-.22,5.26,51.6,22.61-56.64a1.1,1.1,0,0,1,1.13-.67,1.07,1.07,0,0,1,.93.93l9.09,66.7,15.37-44a1.06,1.06,0,0,1,1.14-.71,1.08,1.08,0,0,1,.95,1l6.89,72.41,14.55-45.26,2.05.66-16.15,50.24A1.07,1.07,0,0,1,263.68,251.27Z" style="fill:#E94B4B"></path><g style="opacity:0.2"><path d="M263.68,251.27h-.11a1.08,1.08,0,0,1-1-1l-6.92-72.72L240.47,221.2a1.08,1.08,0,0,1-2.09-.21l-9.14-67.09-22.72,56.91a1.08,1.08,0,0,1-2.07-.29l-5.71-56,2.15-.22,5.26,51.6,22.61-56.64a1.1,1.1,0,0,1,1.13-.67,1.07,1.07,0,0,1,.93.93l9.09,66.7,15.37-44a1.06,1.06,0,0,1,1.14-.71,1.08,1.08,0,0,1,.95,1l6.89,72.41,14.55-45.26,2.05.66-16.15,50.24A1.07,1.07,0,0,1,263.68,251.27Z"></path></g><circle cx="229.55" cy="150.28" r="9.05" style="fill:#E94B4B;opacity:0.30000000000000004"></circle><circle cx="229.55" cy="150.28" r="5.05" style="fill:#E94B4B"></circle><path d="M96.48,224.47a.54.54,0,0,1-.49-.32l-14.54-32,1-.45,13.93,30.62,19-67.19a.54.54,0,0,1,.91-.22l33.42,36.2,21.42-50.47a.54.54,0,0,1,1,0l18.78,38.39-1,.47-18.27-37.33-21.29,50.16a.52.52,0,0,1-.4.32.56.56,0,0,1-.49-.16L116.12,156.4,97,224.07a.54.54,0,0,1-.47.4Z" style="fill:#E94B4B"></path><path d="M84.39,191.74a2.32,2.32,0,1,1-2.32-2.32A2.32,2.32,0,0,1,84.39,191.74Z" style="fill:#E94B4B"></path><path d="M82.07,196.22a4.48,4.48,0,1,1,4.48-4.48A4.48,4.48,0,0,1,82.07,196.22Z" style="fill:#E94B4B;opacity:0.2"></path><path d="M84.39,191.74a2.32,2.32,0,1,1-2.32-2.32A2.32,2.32,0,0,1,84.39,191.74Z" style="opacity:0.2"></path><path d="M98.8,223.39a2.33,2.33,0,1,1-2.32-2.32A2.32,2.32,0,0,1,98.8,223.39Z" style="fill:#E94B4B"></path><path d="M96.48,227.87a4.48,4.48,0,1,1,4.47-4.48A4.49,4.49,0,0,1,96.48,227.87Z" style="fill:#E94B4B;opacity:0.2"></path><path d="M98.8,223.39a2.33,2.33,0,1,1-2.32-2.32A2.32,2.32,0,0,1,98.8,223.39Z" style="opacity:0.2"></path><circle cx="115.6" cy="155.72" r="2.32" style="fill:#E94B4B"></circle><path d="M115.6,160.19a4.48,4.48,0,1,1,4.48-4.47A4.47,4.47,0,0,1,115.6,160.19Z" style="fill:#E94B4B;opacity:0.2"></path><circle cx="115.6" cy="155.72" r="2.32" style="opacity:0.2"></circle><path d="M173.92,141a2.32,2.32,0,1,1-2.32-2.32A2.32,2.32,0,0,1,173.92,141Z" style="fill:#E94B4B"></path><path d="M171.6,145.43a4.48,4.48,0,1,1,4.47-4.48A4.49,4.49,0,0,1,171.6,145.43Z" style="fill:#E94B4B;opacity:0.2"></path><path d="M173.92,141a2.32,2.32,0,1,1-2.32-2.32A2.32,2.32,0,0,1,173.92,141Z" style="opacity:0.2"></path><g id="freepik--freepik-light-bulb-inject-77--inject-3"><g id="freepik--freepik-idea-inject-77--inject-3"><g id="freepik--freepik-light-inject-77--inject-3"><path d="M193.8,325.57a15,15,0,1,1-15.3-14.79,15,15,0,0,1,15.3,14.79Z" style="fill:#37474f"></path><path d="M160.56,327.15c-10.07-5.59-10.23-14.92-.32-20.87a40,40,0,0,1,36.13-.53c10,5.61,10.19,14.95.31,20.83A39.88,39.88,0,0,1,160.56,327.15Z" style="fill:#455a64"></path><path d="M159.91,321.75c-10.37-5.8-10.54-15.41-.36-21.52a41.37,41.37,0,0,1,37.26-.59c10.37,5.8,10.54,15.41.3,21.49A40.91,40.91,0,0,1,159.91,321.75Z" style="fill:#37474f"></path><path d="M159.27,316.23c-10.65-6-10.82-15.85-.24-21.9a42.36,42.36,0,0,1,38.25-.59c10.71,5.94,10.89,15.87.4,22.16A42.51,42.51,0,0,1,159.27,316.23Z" style="fill:#455a64"></path><path d="M158.55,310.36c-11-6.11-11.13-16.34-.32-22.8a43.73,43.73,0,0,1,39.54-.67c11,6.16,11.19,16.36.34,22.85A43.8,43.8,0,0,1,158.55,310.36Z" style="fill:#37474f"></path><path d="M158,304.38c-11.37-6.5-11.44-16.7-.37-23.33a44.52,44.52,0,0,1,40.39-.61c11.25,6.22,11.41,16.65.34,23.28A44.58,44.58,0,0,1,158,304.38Z" style="fill:#455a64"></path><path d="M175.42,128.43A71.58,71.58,0,0,0,104.8,201v.33c.89,56.94,47.93,65.68,48.41,88.58a12.28,12.28,0,0,0,7.41,10,38.71,38.71,0,0,0,35-.51,12.3,12.3,0,0,0,7-10.18h0C202.2,266.23,249,256,248.12,199.05a71.57,71.57,0,0,0-72.53-70.62Z" style="fill:#E94B4B"></path><g style="opacity:0.6000000000000001"><path d="M175.42,128.43A71.58,71.58,0,0,0,104.8,201v.33c.89,56.94,47.93,65.68,48.41,88.58a12.28,12.28,0,0,0,7.41,10,38.71,38.71,0,0,0,35-.51,12.3,12.3,0,0,0,7-10.18h0C202.2,266.23,249,256,248.12,199.05a71.57,71.57,0,0,0-72.53-70.62Z" style="fill:#fff"></path></g><path d="M165,296.87c-7.14-4.16-7.48-10.84-.47-15.1a29.17,29.17,0,0,1,26.34-.39c7.14,4.16,7.43,10.86.23,15.19A29,29,0,0,1,165,296.87Z" style="fill:#E94B4B"></path><path d="M187.53,287.14a2.45,2.45,0,0,1-2.46-2.32,175,175,0,0,1,4.43-41,84.64,84.64,0,0,1,3.39-11.46,32,32,0,0,1-6.3-3,41.22,41.22,0,0,1-9.72-8,42.88,42.88,0,0,1-9.37,8.15,34.15,34.15,0,0,1-6.19,3.11A92.33,92.33,0,0,1,165.08,244a171.86,171.86,0,0,1,5.67,40.92,2.44,2.44,0,0,1-4.87-.06,172.38,172.38,0,0,0-5.54-39.65,77.21,77.21,0,0,0-3.79-11.26,15.3,15.3,0,0,1-13.64-3.79,7.81,7.81,0,0,1-1.21-10,6.49,6.49,0,0,1,6.61-2.89,18.43,18.43,0,0,1,10.93,11,27.88,27.88,0,0,0,5.59-2.81,37.6,37.6,0,0,0,9-8,17.81,17.81,0,0,1-3.79-13.62,6.84,6.84,0,0,1,13.06-.21,17.61,17.61,0,0,1-3.32,13.73A37.79,37.79,0,0,0,189,225a28.57,28.57,0,0,0,5.69,2.58,18.72,18.72,0,0,1,10.61-11.28,6.45,6.45,0,0,1,6.64,2.88,7.73,7.73,0,0,1-.88,10,15.36,15.36,0,0,1-13.51,4.24,81.94,81.94,0,0,0-3.47,11.37,171.58,171.58,0,0,0-4.23,39.83,2.45,2.45,0,0,1-2.36,2.52ZM147.1,222.08a1.58,1.58,0,0,0-1.34.91c-1.18,1.62.23,3.38.69,3.85a9.67,9.67,0,0,0,7.83,2.41,13.85,13.85,0,0,0-6.81-7.21Zm52.72,6.67a10,10,0,0,0,7.77-2.74c.41-.5,1.8-2.26.61-3.87a1.65,1.65,0,0,0-1.76-.85C204.8,221.61,202.31,223.91,199.82,228.75ZM176.72,204a1.64,1.64,0,0,0-1.89,1.34h0a11.8,11.8,0,0,0,2,7.94,12,12,0,0,0,1.73-8,1.64,1.64,0,0,0-1.89-1.34h0Z" style="fill:#fff"></path></g></g></g><g style="opacity:0.30000000000000004"><circle cx="196.15" cy="171.73" r="27.54" style="fill:#fff"></circle><circle cx="220.67" cy="216.42" r="13.5" style="fill:#fff"></circle></g><path d="M164.86,314.07l-19.71-60.51-38.42,23.53a1.09,1.09,0,0,1-.9.1,1.07,1.07,0,0,1-.66-.62L76,203.89l2-.8,28.72,71.5L145.19,251a1.08,1.08,0,0,1,.94-.1,1.09,1.09,0,0,1,.65.68l20.13,61.82Z" style="fill:#E94B4B"></path><g style="opacity:0.1"><path d="M164.86,314.07l-19.71-60.51-38.42,23.53a1.09,1.09,0,0,1-.9.1,1.07,1.07,0,0,1-.66-.62L76,203.89l2-.8,28.72,71.5L145.19,251a1.08,1.08,0,0,1,.94-.1,1.09,1.09,0,0,1,.65.68l20.13,61.82Z"></path></g><path d="M187.06,320.27l-2.12-.37,10.85-62.19a1.09,1.09,0,0,1,.71-.84,1.07,1.07,0,0,1,1.07.22L234,289.91l9.33-48a1.08,1.08,0,0,1,1.8-.58l27.27,25.92,9.71-49.18,2.11.42-10.09,51.09a1.05,1.05,0,0,1-.73.82,1.08,1.08,0,0,1-1.07-.24l-27.26-25.91-9.31,47.94a1.08,1.08,0,0,1-.72.82,1.06,1.06,0,0,1-1.06-.22L197.58,260Z" style="fill:#E94B4B"></path><g style="opacity:0.1"><path d="M187.06,320.27l-2.12-.37,10.85-62.19a1.09,1.09,0,0,1,.71-.84,1.07,1.07,0,0,1,1.07.22L234,289.91l9.33-48a1.08,1.08,0,0,1,1.8-.58l27.27,25.92,9.71-49.18,2.11.42-10.09,51.09a1.05,1.05,0,0,1-.73.82,1.08,1.08,0,0,1-1.07-.24l-27.26-25.91-9.31,47.94a1.08,1.08,0,0,1-.72.82,1.06,1.06,0,0,1-1.06-.22L197.58,260Z"></path></g><circle cx="75.95" cy="201.48" r="5.05" style="fill:#E94B4B"></circle><circle cx="79.36" cy="247.68" r="5.05" style="fill:#E94B4B"></circle><circle cx="96.48" cy="171.31" r="5.05" style="fill:#E94B4B"></circle><circle cx="256.09" cy="173.14" r="5.05" style="fill:#E94B4B"></circle><circle cx="279.63" cy="200.52" r="5.05" style="fill:#E94B4B"></circle><circle cx="106.17" cy="276.17" r="5.05" style="fill:#E94B4B"></circle><circle cx="146.38" cy="252.73" r="5.05" style="fill:#E94B4B"></circle><circle cx="165.88" cy="313.95" r="5.05" style="fill:#E94B4B"></circle><circle cx="186" cy="320.08" r="5.05" style="fill:#E94B4B"></circle><path d="M202.19,258.61a5.06,5.06,0,1,1-5.06-5.05A5.07,5.07,0,0,1,202.19,258.61Z" style="fill:#E94B4B"></path><circle cx="234.11" cy="291.85" r="5.05" style="fill:#E94B4B"></circle><circle cx="244.3" cy="243.99" r="5.05" style="fill:#E94B4B"></circle><circle cx="273.38" cy="269.17" r="5.05" style="fill:#E94B4B"></circle><circle cx="75.95" cy="201.48" r="9.36" transform="translate(-120.22 112.72) rotate(-45)" style="fill:#E94B4B;opacity:0.30000000000000004"></circle><circle cx="79.36" cy="247.68" r="9.36" transform="translate(-179.92 268.01) rotate(-76.72)" style="fill:#E94B4B;opacity:0.30000000000000004"></circle><path d="M96.48,180.67a9.36,9.36,0,1,1,9.36-9.36A9.37,9.37,0,0,1,96.48,180.67Z" style="fill:#E94B4B;opacity:0.30000000000000004"></path><path d="M256.09,182.51a9.37,9.37,0,1,1,9.36-9.37A9.38,9.38,0,0,1,256.09,182.51Z" style="fill:#E94B4B;opacity:0.30000000000000004"></path><circle cx="279.63" cy="200.52" r="9.36" transform="translate(20.44 426.85) rotate(-76.77)" style="fill:#E94B4B;opacity:0.30000000000000004"></circle><circle cx="106.17" cy="276.17" r="9.36" transform="translate(-171.18 379.22) rotate(-89.35)" style="fill:#E94B4B;opacity:0.30000000000000004"></circle><circle cx="146.38" cy="252.73" r="9.36" transform="matrix(0.92, -0.38, 0.38, 0.92, -85.99, 75.81)" style="fill:#E94B4B;opacity:0.30000000000000004"></circle><path d="M165.88,323.31a9.37,9.37,0,1,1,9.37-9.36A9.37,9.37,0,0,1,165.88,323.31Z" style="fill:#E94B4B;opacity:0.30000000000000004"></path><circle cx="186" cy="320.08" r="9.36" transform="translate(-168.35 427.23) rotate(-76.66)" style="fill:#E94B4B;opacity:0.30000000000000004"></circle><circle cx="197.13" cy="258.61" r="9.36" style="fill:#E94B4B;opacity:0.30000000000000004"></circle><circle cx="234.11" cy="291.85" r="9.36" style="fill:#E94B4B;opacity:0.30000000000000004"></circle><circle cx="244.3" cy="243.99" r="9.36" transform="translate(-35.77 445.92) rotate(-80.76)" style="fill:#E94B4B;opacity:0.30000000000000004"></circle><circle cx="273.38" cy="269.17" r="9.36" transform="translate(-51.21 473.7) rotate(-76.77)" style="fill:#E94B4B;opacity:0.30000000000000004"></circle><path d="M283.07,227.49a9.36,9.36,0,1,1,9.36-9.36A9.37,9.37,0,0,1,283.07,227.49Z" style="fill:#E94B4B;opacity:0.30000000000000004"></path><circle cx="283.07" cy="218.13" r="5.05" style="fill:#E94B4B"></circle><path d="M138.89,306.79h-.08a.55.55,0,0,1-.45-.45l-8.62-58.07-14.38,6.18a.57.57,0,0,1-.46,0,.53.53,0,0,1-.28-.37l-6.31-31.14L86.17,253.5a.54.54,0,0,1-.75.12.55.55,0,0,1-.12-.76l22.86-31.57a.55.55,0,0,1,.55-.21.52.52,0,0,1,.41.42l6.42,31.7L130,247a.54.54,0,0,1,.48,0,.56.56,0,0,1,.27.39l8.47,57.11,19-36.51a.54.54,0,0,1,.94,0l19.31,31.85a.53.53,0,0,1-.18.74.55.55,0,0,1-.74-.18l-18.81-31L139.37,306.5A.54.54,0,0,1,138.89,306.79Z" style="fill:#E94B4B"></path><path d="M85.54,258.05A4.48,4.48,0,1,1,90,253.57,4.49,4.49,0,0,1,85.54,258.05Z" style="fill:#E94B4B;opacity:0.30000000000000004"></path><circle cx="85.54" cy="253.57" r="2.32" style="fill:#E94B4B"></circle><path d="M85.54,258.05A4.48,4.48,0,1,1,90,253.57,4.49,4.49,0,0,1,85.54,258.05Z" style="fill:#E94B4B;opacity:0.30000000000000004"></path><circle cx="85.54" cy="253.57" r="2.32" style="opacity:0.2"></circle><path d="M108.59,226.08a4.48,4.48,0,1,1,4.48-4.47A4.47,4.47,0,0,1,108.59,226.08Z" style="fill:#E94B4B;opacity:0.30000000000000004"></path><circle cx="108.59" cy="221.61" r="2.32" style="fill:#E94B4B"></circle><path d="M108.59,226.08a4.48,4.48,0,1,1,4.48-4.47A4.47,4.47,0,0,1,108.59,226.08Z" style="fill:#E94B4B;opacity:0.30000000000000004"></path><circle cx="108.59" cy="221.61" r="2.32" style="opacity:0.2"></circle><path d="M115.26,258.21a4.48,4.48,0,1,1,4.47-4.47A4.48,4.48,0,0,1,115.26,258.21Z" style="fill:#E94B4B;opacity:0.30000000000000004"></path><path d="M117.58,253.74a2.33,2.33,0,1,1-2.32-2.32A2.32,2.32,0,0,1,117.58,253.74Z" style="fill:#E94B4B"></path><path d="M115.26,258.21a4.48,4.48,0,1,1,4.47-4.47A4.48,4.48,0,0,1,115.26,258.21Z" style="fill:#E94B4B;opacity:0.30000000000000004"></path><path d="M117.58,253.74a2.33,2.33,0,1,1-2.32-2.32A2.32,2.32,0,0,1,117.58,253.74Z" style="opacity:0.2"></path><path d="M130.1,252.15a4.48,4.48,0,1,1,4.48-4.47A4.47,4.47,0,0,1,130.1,252.15Z" style="fill:#E94B4B;opacity:0.30000000000000004"></path><path d="M132.43,247.68a2.33,2.33,0,1,1-2.33-2.33A2.32,2.32,0,0,1,132.43,247.68Z" style="fill:#E94B4B"></path><path d="M130.1,252.15a4.48,4.48,0,1,1,4.48-4.47A4.47,4.47,0,0,1,130.1,252.15Z" style="fill:#E94B4B;opacity:0.30000000000000004"></path><path d="M132.43,247.68a2.33,2.33,0,1,1-2.33-2.33A2.32,2.32,0,0,1,132.43,247.68Z" style="opacity:0.2"></path><path d="M139,310a4.48,4.48,0,1,1,4.47-4.48A4.49,4.49,0,0,1,139,310Z" style="fill:#E94B4B;opacity:0.30000000000000004"></path><path d="M141.33,305.55a2.33,2.33,0,1,1-2.32-2.32A2.32,2.32,0,0,1,141.33,305.55Z" style="fill:#E94B4B"></path><path d="M139,310a4.48,4.48,0,1,1,4.47-4.48A4.49,4.49,0,0,1,139,310Z" style="fill:#E94B4B;opacity:0.30000000000000004"></path><path d="M141.33,305.55a2.33,2.33,0,1,1-2.32-2.32A2.32,2.32,0,0,1,141.33,305.55Z" style="opacity:0.2"></path><path d="M158.66,273.85a4.48,4.48,0,1,1,4.47-4.48A4.49,4.49,0,0,1,158.66,273.85Z" style="fill:#E94B4B;opacity:0.30000000000000004"></path><circle cx="158.66" cy="269.37" r="2.32" style="fill:#E94B4B"></circle><path d="M158.66,273.85a4.48,4.48,0,1,1,4.47-4.48A4.49,4.49,0,0,1,158.66,273.85Z" style="fill:#E94B4B;opacity:0.30000000000000004"></path><circle cx="158.66" cy="269.37" r="2.32" style="opacity:0.2"></circle><path d="M178.21,305.05a4.48,4.48,0,1,1,4.48-4.47A4.48,4.48,0,0,1,178.21,305.05Z" style="fill:#E94B4B;opacity:0.30000000000000004"></path><path d="M180.53,300.58a2.32,2.32,0,1,1-2.32-2.32A2.32,2.32,0,0,1,180.53,300.58Z" style="fill:#E94B4B"></path><path d="M178.21,305.05a4.48,4.48,0,1,1,4.48-4.47A4.48,4.48,0,0,1,178.21,305.05Z" style="fill:#E94B4B;opacity:0.30000000000000004"></path><path d="M180.53,300.58a2.32,2.32,0,1,1-2.32-2.32A2.32,2.32,0,0,1,180.53,300.58Z" style="opacity:0.2"></path><path d="M206.51,301.06a.54.54,0,0,1-.39-.16L180.9,274.6a.54.54,0,0,1,0-.76.53.53,0,0,1,.76,0l24.51,25.55,9.31-44.9a.52.52,0,0,1,.36-.4.54.54,0,0,1,.53.11l31.38,28.47,10-57a.51.51,0,0,1,.38-.42.54.54,0,0,1,.55.15l26.65,29.38a.54.54,0,1,1-.79.73L258.64,227l-10,56.86a.57.57,0,0,1-.36.42.56.56,0,0,1-.54-.11l-31.41-28.5-9.32,45a.53.53,0,0,1-.38.41A.39.39,0,0,1,206.51,301.06Z" style="fill:#E94B4B"></path><path d="M181.29,278.49a4.48,4.48,0,1,1,4.48-4.47A4.47,4.47,0,0,1,181.29,278.49Z" style="fill:#E94B4B;opacity:0.30000000000000004"></path><path d="M183.61,274a2.32,2.32,0,1,1-2.32-2.33A2.32,2.32,0,0,1,183.61,274Z" style="fill:#E94B4B"></path><path d="M181.29,278.49a4.48,4.48,0,1,1,4.48-4.47A4.47,4.47,0,0,1,181.29,278.49Z" style="fill:#E94B4B;opacity:0.30000000000000004"></path><path d="M183.61,274a2.32,2.32,0,1,1-2.32-2.33A2.32,2.32,0,0,1,183.61,274Z" style="opacity:0.2"></path><path d="M206.51,305a4.48,4.48,0,1,1,4.48-4.47A4.47,4.47,0,0,1,206.51,305Z" style="fill:#E94B4B;opacity:0.30000000000000004"></path><circle cx="206.51" cy="300.53" r="2.32" style="fill:#E94B4B"></circle><path d="M206.51,305a4.48,4.48,0,1,1,4.48-4.47A4.47,4.47,0,0,1,206.51,305Z" style="fill:#E94B4B;opacity:0.30000000000000004"></path><circle cx="206.51" cy="300.53" r="2.32" style="opacity:0.2"></circle><path d="M215.69,259.66a4.48,4.48,0,1,1,4.48-4.48A4.48,4.48,0,0,1,215.69,259.66Z" style="fill:#E94B4B;opacity:0.30000000000000004"></path><circle cx="215.69" cy="255.18" r="2.32" style="fill:#E94B4B"></circle><path d="M215.69,259.66a4.48,4.48,0,1,1,4.48-4.48A4.48,4.48,0,0,1,215.69,259.66Z" style="fill:#E94B4B;opacity:0.30000000000000004"></path><circle cx="215.69" cy="255.18" r="2.32" style="opacity:0.2"></circle><path d="M248.31,288.12a4.48,4.48,0,1,1,4.48-4.47A4.48,4.48,0,0,1,248.31,288.12Z" style="fill:#E94B4B;opacity:0.30000000000000004"></path><circle cx="248.31" cy="283.65" r="2.32" style="fill:#E94B4B"></circle><path d="M248.31,288.12a4.48,4.48,0,1,1,4.48-4.47A4.48,4.48,0,0,1,248.31,288.12Z" style="fill:#E94B4B;opacity:0.30000000000000004"></path><circle cx="248.31" cy="283.65" r="2.32" style="opacity:0.2"></circle><path d="M258,231.2a4.48,4.48,0,1,1,4.48-4.48A4.48,4.48,0,0,1,258,231.2Z" style="fill:#E94B4B;opacity:0.30000000000000004"></path><path d="M260.31,226.72A2.33,2.33,0,1,1,258,224.4,2.33,2.33,0,0,1,260.31,226.72Z" style="fill:#E94B4B"></path><path d="M258,231.2a4.48,4.48,0,1,1,4.48-4.48A4.48,4.48,0,0,1,258,231.2Z" style="fill:#E94B4B;opacity:0.30000000000000004"></path><path d="M260.31,226.72A2.33,2.33,0,1,1,258,224.4,2.33,2.33,0,0,1,260.31,226.72Z" style="opacity:0.2"></path><path d="M285.39,259.66a4.48,4.48,0,1,1,4.48-4.48A4.48,4.48,0,0,1,285.39,259.66Z" style="fill:#E94B4B;opacity:0.30000000000000004"></path><circle cx="285.39" cy="255.18" r="2.32" style="fill:#E94B4B"></circle><path d="M285.39,259.66a4.48,4.48,0,1,1,4.48-4.48A4.48,4.48,0,0,1,285.39,259.66Z" style="fill:#E94B4B;opacity:0.30000000000000004"></path><circle cx="285.39" cy="255.18" r="2.32" style="opacity:0.2"></circle><path d="M285.39,250.71a4.43,4.43,0,0,0-2.83,1l-4-4.41,3.93-19.88a5.49,5.49,0,0,0,.58,0,9.36,9.36,0,0,0,.89-18.68,9.36,9.36,0,1,0-8.18.23l-8.36,26-4.58-5-2.2-23.18,9.65-17.17a2.32,2.32,0,1,0-1.19-2,2.28,2.28,0,0,0,.38,1.26l-9,16-2.16-22.72a9.38,9.38,0,1,0-6.28-.67l-4.2,12a71,71,0,0,0-5-20.6l-.66-6.25a2.29,2.29,0,0,0,1.15-2,2.32,2.32,0,0,0-4.62-.25,71.57,71.57,0,0,0-4.28-6.6,9,9,0,1,0-12.16-13,71.26,71.26,0,0,0-46.67-16.51h-.17a71.19,71.19,0,0,0-20.66,3.33,9.36,9.36,0,1,0-15.57,7.09,71.7,71.7,0,0,0-19.12,17s0-.07,0-.11a4.48,4.48,0,1,0-6.06,4.17l-3.25,11.5a71.29,71.29,0,0,0-4.25,13l-3.73-6.18a9.36,9.36,0,1,0-9.64,1.85L88,203.89l-3.75-8.24a4.46,4.46,0,1,0-6.6-3.91,4.71,4.71,0,0,0,.05.54,8.67,8.67,0,0,0-1.7-.17,9.36,9.36,0,0,0-.36,18.71l2.13,27.65A9.36,9.36,0,0,0,79.36,257a9.5,9.5,0,0,0,2.89-.46,4.46,4.46,0,1,0,6.27-6.33l3.91-5.4,9.27,23.09a9.36,9.36,0,1,0,13.83,8.23,9.2,9.2,0,0,0-.88-3.93l17.1-10.47,5.87,39.55a4.47,4.47,0,1,0,4.09.69l9.88-19a21,21,0,0,1,.85,2.24c-3.26,3.71-3.94,7.92-2,11.83a9.71,9.71,0,0,0,.93,6.46,9.27,9.27,0,0,0,.83,5.84,9.13,9.13,0,0,0,.88,5.81c-.79,4.33,1.71,8.78,7.5,12a35.88,35.88,0,0,0,3.46,1.47,15,15,0,0,0,29.61-.61c1-.44,2.05-.9,3.05-1.43,5.68-3.39,8-7.91,7.1-12.21a9.19,9.19,0,0,0,.77-5.54,9.77,9.77,0,0,0,.88-4,4.33,4.33,0,0,0,1.08.15,4.47,4.47,0,0,0,1.43-8.7l4.71-22.74,14,12.61a9.36,9.36,0,1,0,10.87-3l1.37-7,5.64,5.12a4.37,4.37,0,0,0-.73,2.42,4.48,4.48,0,1,0,5.63-4.31l4.65-26.55,11.6,11A9.36,9.36,0,1,0,276,260.2l2.28-11.55,3.51,3.87a4.47,4.47,0,1,0,3.58-1.81Zm-6.65-40.87a9.16,9.16,0,0,0-1.19.75l.28-.88C278.13,209.76,278.43,209.81,278.74,209.84Zm-4.56,11.22a9.4,9.4,0,0,0,6.18,6l-3.6,18.26-7.67-8.45ZM267,236.24l-2.78,8.64L263,231.8ZM260,222.74a4.46,4.46,0,1,0-3.16,8.29l-3.21,18.32-1.05-1a9.27,9.27,0,0,0,1.09-4.36,9.37,9.37,0,0,0-13-8.63,73.1,73.1,0,0,0,5.84-17.52l1.08,10.2a.53.53,0,0,0,.42.47h.11a.53.53,0,0,0,.47-.27l10.2-18.13ZM115.26,249.26a4.4,4.4,0,0,0-.51.05l-3.18-15.73A77,77,0,0,0,122,250.41l-2.86,1.22A4.46,4.46,0,0,0,115.26,249.26ZM96.48,227.87a4.47,4.47,0,0,0,1.86-8.54l6.58-23.3c-.09,1.63-.14,3.27-.12,4.93v.33a90.67,90.67,0,0,0,1.7,16.38,4.44,4.44,0,0,0-.94,7.21L93.45,241.61,86,223l3.07-14.11L94,219.69a4.48,4.48,0,0,0,2.52,8.18ZM235,245.12a9.37,9.37,0,0,0,6.24,7.71l-4,20.36-14.62-13.27A112.09,112.09,0,0,0,235,245.12Zm21.08-62.61h.07l2.45,25.74-10.13,18L247.18,214a90,90,0,0,0,.94-14.73l5.93-17A9.11,9.11,0,0,0,256.09,182.51ZM241.4,169.72c-.34-.73-.68-1.45-1-2.16l.22-.53a3,3,0,0,0,.42,0h.12Zm-126.34-9.58a4.93,4.93,0,0,0,.54.05,4.31,4.31,0,0,0,1.48-.27q-2,2.91-3.65,6ZM95.24,180.58a10,10,0,0,0,1.24.09,9.28,9.28,0,0,0,4.56-1.2l4.86,8c-.16.87-.31,1.74-.43,2.62L97.31,219a4.58,4.58,0,0,0-.83-.09,4.51,4.51,0,0,0-1.56.3l-5.48-12Zm-10.68,38.9-4-9.88a9.36,9.36,0,0,0,4.72-8.12,8.83,8.83,0,0,0,0-.89l2.3,5.06Zm-4.69,18.86-2.13-27.68q.44-.09.87-.21l5.13,12.78-3.3,15.15Zm8.83,9.83c0-.16,0-.33,0-.49a9.36,9.36,0,0,0-6.19-8.8l2.64-12.09L92,243.67Zm17.47,18.64a9.08,9.08,0,0,0-2.46.34l-9.79-24.36,12.52-17.29a4.38,4.38,0,0,0,2.15.58h.09c.22.67.44,1.32.67,2l4.35,21.52a4.49,4.49,0,1,0,5.88,3.07l3.17-1.36c2.59,3.13,5.28,6,7.95,8.62L113.53,270.4A9.35,9.35,0,0,0,106.17,266.81Zm34.61,34.64a4.36,4.36,0,0,0-1.77-.38c-.12,0-.22,0-.34,0l-5.8-39.1c7.6,7.33,14.68,13.22,18.13,19.77Zm66.1-5.36c-.12,0-.24,0-.37,0a4.76,4.76,0,0,0-.65.06c0-.1-.05-.21-.08-.32,1.53-3.84.66-7.9-2.58-11.38,1.19-4.32,4-8.3,7.72-12.42l.8.73Zm28.59-13.49a8.81,8.81,0,0,0-1.36-.11,9.29,9.29,0,0,0-5.94,2.13l-15-13.51.4-1.95c2.58-2.68,5.43-5.46,8.36-8.46l15.13,13.72Zm12.92-3.42h-.08a4.42,4.42,0,0,0-3.06,1.23l-6.09-5.52,4.19-21.57c.31,0,.63,0,1,0a9.31,9.31,0,0,0,7-3.2l1.84,1.75Zm25.51-19.34-.52,0a9.26,9.26,0,0,0-6.23,2.4l-12.59-12,3.34-19.05H258a4.43,4.43,0,0,0,2.72-.94l1.91,20a1.08,1.08,0,0,0,1,1h.11a1.08,1.08,0,0,0,1-.75l4-12.44,7.79,8.59Z" style="fill:#fff;opacity:0.2"></path><path d="M212,379.36l-29.46,17.11a6.36,6.36,0,0,1-5.79,0l-29.65-17.11a2.08,2.08,0,0,1-1.21-1.68v7a2.1,2.1,0,0,0,1.21,1.68l29.65,17.11a6.36,6.36,0,0,0,5.79,0L212,386.37a2,2,0,0,0,1.19-1.68h0v-7h0A2,2,0,0,1,212,379.36Z" style="fill:#e0e0e0"></path><path d="M212,379.36l-29.46,17.11a6.36,6.36,0,0,1-5.79,0l-29.65-17.11a2.08,2.08,0,0,1-1.21-1.68v7a2.1,2.1,0,0,0,1.21,1.68l29.65,17.11a6.36,6.36,0,0,0,5.79,0L212,386.37a2,2,0,0,0,1.19-1.68h0v-7h0A2,2,0,0,1,212,379.36Z" style="opacity:0.2"></path><path d="M147.07,379.36l29.65,17.11a6.36,6.36,0,0,0,5.79,0L212,379.36a2,2,0,0,0,1.19-1.68A2.07,2.07,0,0,0,212,376L182.3,358.88a6.42,6.42,0,0,0-5.79,0L147.05,376a2,2,0,0,0-1.19,1.68A2.08,2.08,0,0,0,147.07,379.36Z" style="fill:#e0e0e0"></path><path d="M147.07,379.36l29.65,17.11a6.36,6.36,0,0,0,5.79,0L212,379.36a2,2,0,0,0,1.19-1.68A2.07,2.07,0,0,0,212,376L182.3,358.88a6.42,6.42,0,0,0-5.79,0L147.05,376a2,2,0,0,0-1.19,1.68A2.08,2.08,0,0,0,147.07,379.36Z" style="opacity:0.1"></path><path d="M200.28,374.51l-18.85,10.95a4,4,0,0,1-3.71,0l-19-10.95a1.31,1.31,0,0,1-.77-1.07v4.48a1.32,1.32,0,0,0,.77,1.08l19,10.95a4.11,4.11,0,0,0,3.71,0L200.28,379a1.31,1.31,0,0,0,.76-1.08h0v-4.48h0A1.3,1.3,0,0,1,200.28,374.51Z" style="fill:#e0e0e0"></path><path d="M200.28,374.51l-18.85,10.95a4,4,0,0,1-3.71,0l-19-10.95a1.31,1.31,0,0,1-.77-1.07v4.48a1.32,1.32,0,0,0,.77,1.08l19,10.95a4.11,4.11,0,0,0,3.71,0L200.28,379a1.31,1.31,0,0,0,.76-1.08h0v-4.48h0A1.3,1.3,0,0,1,200.28,374.51Z" style="opacity:0.2"></path><polygon points="157.98 373.44 157.98 373.44 157.98 373.44 157.98 373.44" style="fill:#455a64"></polygon><path d="M158.75,374.51l19,10.95a4,4,0,0,0,3.71,0l18.85-10.95a1.3,1.3,0,0,0,.76-1.07,1.32,1.32,0,0,0-.77-1.08l-19-10.95a4.11,4.11,0,0,0-3.71,0l-18.85,10.95a1.31,1.31,0,0,0-.76,1.08h0A1.31,1.31,0,0,0,158.75,374.51Zm20.69-9.43,14.5,8.37-14.36,8.35-14.5-8.37Z" style="fill:#e0e0e0"></path><polygon points="165.08 373.43 179.58 381.8 193.94 373.45 179.44 365.08 165.08 373.43" style="fill:#fff"></polygon><polygon points="165.08 373.43 70 244.8 178.21 307.04 179.58 381.8 165.08 373.43" style="fill:#fff;opacity:0.30000000000000004"></polygon><polygon points="193.94 373.45 288.75 243.22 178.21 307.04 179.58 381.8 193.94 373.45" style="fill:#fff;opacity:0.30000000000000004"></polygon></g><g id="freepik--speech-bubble--inject-3"><path d="M382.45,79l29.18,16.74a5.75,5.75,0,0,1,2.86,4.94v21.23c0,3.82-3.25,6.42-7.53,4l-4.06-2.32h0l-.82-.48-.19-.1h0l-5.47-3.13h0l-18.63-10.64a5.71,5.71,0,0,1-2.87-5V83C374.92,78.9,379.9,77.57,382.45,79Z" style="fill:#E94B4B"></path><path d="M407.63,98.57h0Z" style="fill:none"></path><path d="M409.16,100.49a5.91,5.91,0,0,0-1.52-1.92h0a4.92,4.92,0,0,0-.69-.47L377.77,81.36A1.91,1.91,0,0,0,374.92,83c0-4.11,5-5.44,7.53-4l29.18,16.74a5.75,5.75,0,0,1,2.12,2.15Z" style="fill:#fff;opacity:0.4"></path><path d="M409.8,124.27V103a4.92,4.92,0,0,0,0-.67,5.75,5.75,0,0,0-.6-1.88l4.59-2.57a5.7,5.7,0,0,1,.74,2.79v21.23c0,3.82-3.25,6.42-7.53,4A1.9,1.9,0,0,0,409.8,124.27Z" style="fill:#fff;opacity:0.2"></path><polygon points="402.07 123.12 401.89 123.02 401.89 123.02 402.07 123.12" style="fill:none"></polygon><polygon points="402.9 123.59 402.07 123.12 402.9 123.59 402.9 123.59" style="fill:#E94B4B"></polygon><polygon points="371.15 93.34 374.92 91.15 374.92 92.26 371.15 93.34" style="fill:#E94B4B"></polygon><polygon points="371.15 93.34 374.92 91.15 374.92 92.26 371.15 93.34" style="fill:#fff;opacity:0.4"></polygon><path d="M375.59,92.07l-4.23,1.18a.92.92,0,0,0-.37,1.56l4.39,4.07Z" style="fill:#E94B4B"></path><path d="M402.16,110l.24.5-.24.22c-2.61,2.52-6.07,2.73-9.77.6s-7.15-6.34-9.73-11.86l-.23-.49.23-.23c2.6-2.52,6.08-2.72,9.77-.59S399.58,104.52,402.16,110Zm-9.77.1c3.24,1.88,6.32,1.75,8.68-.36-2.34-4.84-5.41-8.51-8.65-10.38s-6.3-1.74-8.67.37c2.35,4.84,5.4,8.5,8.64,10.37" style="fill:#fff"></path><path d="M392.6,101.31a6.68,6.68,0,0,1,3,5.24c0,1.92-1.37,2.7-3,1.73a6.65,6.65,0,0,1-3-5.24C389.55,101.11,390.92,100.33,392.6,101.31Z" style="fill:#fff"></path><path d="M391.45,101.55a2.15,2.15,0,0,1,1,1.67c0,.62-.44.87-1,.56a2.13,2.13,0,0,1-1-1.68C390.47,101.48,390.91,101.24,391.45,101.55Z" style="fill:#E94B4B"></path><path d="M390.85,103.81a1.13,1.13,0,0,1,.5.88c0,.32-.22.45-.5.29a1.13,1.13,0,0,1-.51-.88C390.34,103.78,390.57,103.65,390.85,103.81Z" style="fill:#E94B4B"></path></g><g id="freepik--Character--inject-3"><path d="M324.09,121.55a10.31,10.31,0,0,0-8.39,6.75L306,155.6,284.5,142.46a8.38,8.38,0,0,1-2.85-3.82l-1-2.73a10.19,10.19,0,0,0-3.51-4.68,35.27,35.27,0,0,1-6.42-6.18,3.88,3.88,0,0,0-.28,4.89,27.93,27.93,0,0,0,2.56,2.94l-2.3.16a8,8,0,0,1-4.75-1.17l-5.86-3.59a1.11,1.11,0,0,0-1.69.94,25.18,25.18,0,0,0,1.69,8.47,9.56,9.56,0,0,0,5.59,5.66c3.11,1.19,6.13,2.22,7.86,2.8a9.87,9.87,0,0,1,2.75,1.43l1.73,1.29,23.27,22.57a10.14,10.14,0,0,0,15.51-3.31l7.59-15.24,4.45-32Z" style="fill:#ffa8a7"></path><path d="M323.92,121.44a11.71,11.71,0,0,0-9.82,7.67L307,148.51l-2,5-6.19-3.6-8.7,11.76,9.77,9.86a11,11,0,0,0,17.75-2.9l5.17-10.53,4.21-7.41,1.8-29.8Z" style="fill:#E94B4B"></path><path d="M323.92,121.44a11.71,11.71,0,0,0-9.82,7.67L307,148.51l-2,5-6.19-3.6-8.7,11.76,9.77,9.86a11,11,0,0,0,17.75-2.9l5.17-10.53,4.21-7.41,1.8-29.8Z" style="fill:#fff;opacity:0.2"></path><path d="M305,153.55l6.52,4.42c-1-5.95-5.33-7.49-5.33-7.49Z" style="opacity:0.21"></path><path d="M293.63,148.05l1.25.77c-.76,6.05-7.23,9.38-7.23,9.38l-1-1h0a4,4,0,0,0,.72,4.13l.56.65a4.35,4.35,0,0,0,5.4,1,17.74,17.74,0,0,0,7.4-9.17,4.41,4.41,0,0,0-2.08-5.29l-.88-.48a4.06,4.06,0,0,0-3.27-.26Z" style="fill:#E94B4B"></path><path d="M293.63,148.05l1.25.77c-.76,6.05-7.23,9.38-7.23,9.38l-1-1h0a4,4,0,0,0,.72,4.13l.56.65a4.35,4.35,0,0,0,5.4,1,17.74,17.74,0,0,0,7.4-9.17,4.41,4.41,0,0,0-2.08-5.29l-.88-.48a4.06,4.06,0,0,0-3.27-.26Z" style="fill:#fff;opacity:0.4"></path><path d="M307.74,328.86a10.31,10.31,0,0,0,7.73,2.85,23.17,23.17,0,0,0,8.18-2.07c2.62-1.07,5.9-4.08,8.73-4a69.06,69.06,0,0,0,8.27-.57,43.06,43.06,0,0,0-1.18-11.2l-13.2-.35c-3.56,4.88-10.49,8.94-15.74,10.47a4.58,4.58,0,0,0-3.25,3.47.25.25,0,0,0,0,.08A5.29,5.29,0,0,0,307.74,328.86Z" style="fill:#455a64"></path><path d="M332.38,325.62c-2.83-.06-6.11,2.95-8.73,4a23.17,23.17,0,0,1-8.18,2.07,10.31,10.31,0,0,1-7.73-2.85,5.29,5.29,0,0,1-.45-1.34.25.25,0,0,1,0-.08,4,4,0,0,0,0,1.76,5.5,5.5,0,0,0,.45,1.34,10.3,10.3,0,0,0,7.73,2.84,23.37,23.37,0,0,0,8.18-2.06c2.62-1.08,5.9-4.09,8.73-4a61.55,61.55,0,0,0,8.14-.47c.07-.59.1-1.18.13-1.77A69.06,69.06,0,0,1,332.38,325.62Z" style="fill:#263238"></path><path d="M369.65,330.1a19.28,19.28,0,0,1-.4,4,9.29,9.29,0,0,1-3.66,5.84,11.77,11.77,0,0,1-5.82,1.54,12.73,12.73,0,0,1-5.32-.55,6.05,6.05,0,0,1-3.11-2.54.17.17,0,0,0,0,.07,5.56,5.56,0,0,0,3.59,3.73,12.88,12.88,0,0,0,5.32.55,11.66,11.66,0,0,0,5.81-1.55,9.22,9.22,0,0,0,3.66-5.84,19.11,19.11,0,0,0,.4-4,6.81,6.81,0,0,1,2.15-4.9q.5-.46.93-1a2.42,2.42,0,0,0,.58-1.75c0-.25-.05-.49-.08-.73-.48.57-1.63,1.92-1.91,2.19A6.73,6.73,0,0,0,369.65,330.1Z" style="fill:#263238"></path><path d="M359.55,316.15a14.63,14.63,0,0,1-1,8.12,30.92,30.92,0,0,1-4.29,7.06,20.82,20.82,0,0,0-2.25,3.29,5.82,5.82,0,0,0-.64,3.78,6.05,6.05,0,0,0,3.11,2.54,12.73,12.73,0,0,0,5.32.55,11.77,11.77,0,0,0,5.82-1.54,9.29,9.29,0,0,0,3.66-5.84,19.28,19.28,0,0,0,.4-4,6.73,6.73,0,0,1,2.15-4.89c.28-.27,1.43-1.62,1.91-2.19a14.91,14.91,0,0,0-2-5.66Z" style="fill:#455a64"></path><path d="M320.55,185.76l1.1,75.3,3.56,52.7c9,5.69,15.51,1,15.51,1,3.41-25,3.87-40.33,2-50.72l1.71-40.63,5.12,42.18,8.6,51.71c9.23,6,15.74,0,15.74,0,0-19.14,1.71-40.54-3.56-54.34a317.39,317.39,0,0,0-2.48-76.46Z" style="fill:#263238"></path><path d="M342.55,207.93l1.89,15.52-.8,19-3.47-31.28c-8-3.14-9.07-7.56-9.07-7.56A24.72,24.72,0,0,0,342.55,207.93Z" style="opacity:0.30000000000000004"></path><path d="M337.65,120l-8.8.93c-7.21,6.36-10.93,19.7-9.38,34.43a261,261,0,0,1,1.08,30.4c19.54,14.27,44.2,3.88,47.31.78l-1.45-18.07a12.53,12.53,0,0,1,1-5.95c1.85-4.28,5.14-12.72,5.58-19.25a34.24,34.24,0,0,0-3.56-16.83l-12.8-5.58Z" style="fill:#ebebeb"></path><path d="M335.21,132.84c-7.37,16.94-7.25,34.39-7.25,34.39l3.62,7.79,5.68-7.44a294,294,0,0,1,.69-34.24Z" style="fill:#455a64"></path><path d="M334.9,126.44a26.63,26.63,0,0,0,.31,6.4,5.09,5.09,0,0,0,2.74.5,22.29,22.29,0,0,0,4.39-5.31L338,126.44Z" style="fill:#455a64"></path><path d="M338,126.44c3.79,1.4,7.16,8.14,7.16,8.14,9.95-8.45,11.5-13.72,11.5-13.72a19.93,19.93,0,0,0-4.82-5.1Z" style="fill:#fafafa"></path><path d="M338,126.44c-2.9.08-5.45,4.11-5.45,4.11-.47-7.06,5.45-12.49,5.45-12.49Z" style="fill:#fafafa"></path><path d="M356.62,87.31a7.84,7.84,0,0,0-5-2.7l-26.2,2.46c-3,6.5-.61,10.8-.61,10.8-.4,9.9-.74,16.2,3.55,18.29a19.83,19.83,0,0,0,9.57,1.35,22.36,22.36,0,0,0,8.77-2.37l.14-.07a7.51,7.51,0,0,0,3.76-5,41.48,41.48,0,0,0,.9-5.86,23.22,23.22,0,0,1,.37-3.34,5.84,5.84,0,0,1,1.47-3,3.37,3.37,0,0,1,3-1,3.18,3.18,0,0,1,.54.21C357.62,92.67,357.84,88.85,356.62,87.31Z" style="fill:#263238"></path><path d="M347,88.07a9.31,9.31,0,0,0,.35,5.56A40.6,40.6,0,0,1,349,99a8.9,8.9,0,0,1-.72,5.46,6.32,6.32,0,0,1-4.17,3.39c-2.82.6-5.57-1.06-8.39-1.62a11.6,11.6,0,0,0-7.89,1.42,1.37,1.37,0,0,1-2.06-1.11c-.33-5.7-.33-14.64.51-18.84Z" style="fill:#ffa8a7"></path><polygon points="349.69 113.54 349.69 113.54 349.68 113.55 349.69 113.54" style="fill:#ffa8a7"></polygon><path d="M352,107.05s-.05,2.32-.11,5.08a8,8,0,0,0,2.44-3.84A3.53,3.53,0,0,1,352,107.05Z" style="fill:#37474f"></path><polygon points="334.97 98.18 330.19 104.05 334.57 105.62 334.97 98.18" style="fill:#f28f8f"></polygon><path d="M338.58,108.54l-3.69,1.15a2.27,2.27,0,0,0,2.49,1.16A2.07,2.07,0,0,0,338.58,108.54Z" style="fill:#f28f8f"></path><path d="M338.58,108.54l-3.69,1.15a2.27,2.27,0,0,0,2.49,1.16A2.07,2.07,0,0,0,338.58,108.54Z" style="opacity:0.30000000000000004"></path><path d="M336.17,110.78a2,2,0,0,0,1.21.07,1.88,1.88,0,0,0,1.2-1.69,2.22,2.22,0,0,0-1.43.26A2.27,2.27,0,0,0,336.17,110.78Z" style="fill:#f28f8f"></path><path d="M341.47,99.47a1.31,1.31,0,1,1-1.24-1.41A1.33,1.33,0,0,1,341.47,99.47Z" style="fill:#263238"></path><path d="M330.49,98.44A1.31,1.31,0,1,1,329.25,97,1.33,1.33,0,0,1,330.49,98.44Z" style="fill:#263238"></path><path d="M329.49,93.07l-3,1.88a1.9,1.9,0,0,1,.68-2A2.17,2.17,0,0,1,329.49,93.07Z" style="fill:#263238"></path><path d="M340.72,93.53l2.8,2.19a1.92,1.92,0,0,0-.46-2.12A2.17,2.17,0,0,0,340.72,93.53Z" style="fill:#263238"></path><path d="M358.69,99a3.73,3.73,0,0,0-1.82-1.93,3.18,3.18,0,0,0-.54-.21,3.37,3.37,0,0,0-3,1,5.84,5.84,0,0,0-1.47,3,23.22,23.22,0,0,0-.37,3.34,42,42,0,0,1-.93,6,7.39,7.39,0,0,1-3.74,4.87l-.13.07a22.36,22.36,0,0,1-8.77,2.37v8.93l12.39-7.33a3,3,0,0,0,1.46-2.52c0-1.43.07-3,.1-4.46.06-2.76.11-5.08.11-5.08a3.53,3.53,0,0,0,2.33,1.24,3.29,3.29,0,0,0,1.22-.06,4.66,4.66,0,0,0,2.73-2.37,8.87,8.87,0,0,0,.87-3.6A7.32,7.32,0,0,0,358.69,99Z" style="fill:#ffa8a7"></path><path d="M348.45,115a8.4,8.4,0,0,0,1.53-3.22,7.35,7.35,0,0,1-3.17,3.33l-.13.07a22.36,22.36,0,0,1-8.77,2.37v2.28a21.83,21.83,0,0,0,5.19-1.11A11.74,11.74,0,0,0,348.45,115Z" style="opacity:0.2"></path><path d="M353.23,85.35c-3.08,2.74-8,4-12.06,4.51a32.06,32.06,0,0,1-12.24-1c-1.66-.44-3.43-1.08-4.38-2.51a6.33,6.33,0,0,1,4.19-9.51c3.88-.71,7.59,2.3,11.53,2.07a20.67,20.67,0,0,0,4.94-1.33,7.55,7.55,0,0,1,5-.22,5.12,5.12,0,0,1,2.86,3.16A8.78,8.78,0,0,1,353.23,85.35Z" style="fill:#263238"></path><path d="M312.74,186.17l-9-36.74a4.33,4.33,0,0,0-2-2.72l-22.44-12.92a.83.83,0,0,0-.42-.11h0a2.11,2.11,0,0,0-2,1.43h0a.79.79,0,0,0-.06.57l9,36.74a4.33,4.33,0,0,0,2,2.72l22.44,12.92a.89.89,0,0,0,.59.1h0a2.63,2.63,0,0,0,1.88-1.42l0-.07v0h0A.82.82,0,0,0,312.74,186.17Z" style="fill:#455a64"></path><path d="M311.51,187.09l-9-36.74a4.38,4.38,0,0,0-2-2.72L278,134.71a.86.86,0,0,0-1.22.39.79.79,0,0,0-.06.57l9,36.74a4.33,4.33,0,0,0,2,2.72l22.44,12.92a.89.89,0,0,0,.59.1A.87.87,0,0,0,311.51,187.09Z" style="fill:#455a64;opacity:0.30000000000000004"></path><path d="M356.61,120.86c-3.17,7.13-13,12.3-14.27,28.48s2.3,48.14,5,56.48c10.52,4,25.68-2.64,25.68-2.64-2.84-10.59-5.74-39.7-4.47-54.57S366,124.94,366,124.94Z" style="fill:#E94B4B"></path><path d="M354,138.2a2.16,2.16,0,0,0,.4-3l-2.48-3.21,5-1a2.16,2.16,0,0,0,1.7-2.68l-1.95-7.44c-3.17,7.13-13,12.3-14.27,28.48-.13,1.67-.21,3.48-.24,5.37C344.37,150.17,348.9,142,354,138.2Z" style="fill:#E94B4B"></path><path d="M354,138.2a2.16,2.16,0,0,0,.4-3l-2.48-3.21,5-1a2.16,2.16,0,0,0,1.7-2.68l-1.95-7.44c-3.17,7.13-13,12.3-14.27,28.48-.13,1.67-.21,3.48-.24,5.37C344.37,150.17,348.9,142,354,138.2Z" style="fill:#fff;opacity:0.2"></path><path d="M336.17,120.06a29,29,0,0,0-3.22,4.25c-4.5,7.22-7.06,14.76-9.07,42.89-1.1,12.71,2.43,31.71,2.43,31.71-2.45-.27-8.38-7.29-8.38-7.29,1.52-14.37-2.88-39.83,0-53.16s10.92-17.53,10.92-17.53Z" style="fill:#E94B4B"></path><path d="M336.17,120.06,327.85,125a1.09,1.09,0,0,0-.16,1.76l1.16,1-3.78,1.91a3.26,3.26,0,0,0-1.8,2.86,91.88,91.88,0,0,0,2.14,17.94c1.79-14.94,4.1-20.65,7.54-26.17A29,29,0,0,1,336.17,120.06Z" style="fill:#E94B4B"></path><path d="M336.17,120.06,327.85,125a1.09,1.09,0,0,0-.16,1.76l1.16,1-3.78,1.91a3.26,3.26,0,0,0-1.8,2.86,91.88,91.88,0,0,0,2.14,17.94c1.79-14.94,4.1-20.65,7.54-26.17A29,29,0,0,1,336.17,120.06Z" style="fill:#fff;opacity:0.2"></path><path d="M366,124.94c-5,5.12-10.87,22-13.33,29.61h0l-5.42,15.2c-7.81.4-8.61,1.47-15,2.6-2.05.36-6.71,1.35-9.8,1.7a15.79,15.79,0,0,1-1.7,0c-2.61-.36-7.88-4.51-15.2-5.34h0a3,3,0,0,0,1.51,4l5.09,2.32c-4.67.94-12.53-5.71-14.92-4.66s1,3.48,1,3.48c-.87,3,1.93,4.94,1.93,4.94,0,2.95,2.72,5.44,9.52,7.05,3.59.72,7.46-.69,10.78-.69l2.68,0h0l29.93.65a9.35,9.35,0,0,0,8.36-5.15c2.56-5.09,6.21-12.43,7.17-14.75C381.62,134.67,380.54,128,366,124.94Z" style="fill:#ffa8a7"></path><polygon points="325.31 178.5 321.33 178.5 321.33 173.75 325.31 173.26 325.31 178.5" style="fill:#37474f"></polygon><polygon points="325.31 185.71 321.33 185.71 321.33 180.95 325.31 180.46 325.31 185.71" style="fill:#37474f"></polygon><path d="M327.42,180.92c0-1.75-1.84-3.16-4.1-3.16s-4.09,1.41-4.09,3.16v1h.24a4.55,4.55,0,0,0,7.71,0h.24Z" style="fill:#263238"></path><path d="M327.42,182c0,1.74-1.84,3.16-4.1,3.16s-4.09-1.42-4.09-3.16,1.83-3.16,4.09-3.16S327.42,180.2,327.42,182Z" style="fill:#455a64"></path><path d="M323.32,183.83a2.79,2.79,0,0,1-3-2.09c0,.07,0,.13,0,.21,0,1.27,1.33,2.3,3,2.3s3-1,3-2.3a1.33,1.33,0,0,0,0-.21A2.78,2.78,0,0,1,323.32,183.83Z" style="fill:#263238"></path><path d="M323.32,183.83a2.22,2.22,0,1,0-3-2.09A2.78,2.78,0,0,0,323.32,183.83Z" style="fill:#37474f"></path><path d="M366,124.94c-11.08,11.47-16,33.49-16,33.49-2.25,6.75-3.07,10.21-3.07,10.21s-5.1.68-9.31,1.7v15.71l14.16.43a12.17,12.17,0,0,0,11.36-6.92c2.65-5.54,6-12.68,7.19-15.28,0,0,5.43-11.36,7.37-20.92C380.34,128.82,374.87,126.66,366,124.94Z" style="fill:#E94B4B"></path><path d="M366,124.94c-11.08,11.47-16,33.49-16,33.49-2.25,6.75-3.07,10.21-3.07,10.21s-5.1.68-9.31,1.7v15.71l14.16.43a12.17,12.17,0,0,0,11.36-6.92c2.65-5.54,6-12.68,7.19-15.28,0,0,5.43-11.36,7.37-20.92C380.34,128.82,374.87,126.66,366,124.94Z" style="fill:#fff;opacity:0.2"></path><path d="M332.25,172.35l1.61-.31c2.9,5.8.68,13.32.68,13.32l-1.18,0h0a2.84,2.84,0,0,0,2.69,2.28l3.35.1a2.85,2.85,0,0,0,2.82-2.08c1.35-4.73.43-10-.54-13.53a4.28,4.28,0,0,0-5.13-3l-1.17.28a4.3,4.3,0,0,0-3.13,3Z" style="fill:#E94B4B"></path><path d="M332.25,172.35l1.61-.31c2.9,5.8.68,13.32.68,13.32l-1.18,0h0a2.84,2.84,0,0,0,2.69,2.28l3.35.1a2.85,2.85,0,0,0,2.82-2.08c1.35-4.73.43-10-.54-13.53a4.28,4.28,0,0,0-5.13-3l-1.17.28a4.3,4.3,0,0,0-3.13,3Z" style="fill:#fff;opacity:0.4"></path><path d="M357.15,170a10,10,0,0,0-9.06-5.61c-.84,2.82-1.18,4.25-1.18,4.25A22.42,22.42,0,0,1,357.15,170Z" style="opacity:0.21"></path></g></svg>